<?xml version="1.0" encoding="utf-8"?>
<!-- Generator: Adobe Illustrator 22.0.1, SVG Export Plug-In . SVG Version: 6.00 Build 0)  -->
<svg version="1.1" id="Layer_1" xmlns="http://www.w3.org/2000/svg" xmlns:xlink="http://www.w3.org/1999/xlink" x="0px" y="0px"
	 viewBox="0 0 939.4 190.3" style="enable-background:new 0 0 939.4 190.3;" xml:space="preserve">
<style type="text/css">
	.st0{fill:#FFFFFF;}
</style>
<title>partner</title>
<path class="st0" d="M24.2,122.9c3.3,0.4,6.4,0.7,9.7,0.7c20.6,0,25.5-17.6,25.5-27.4c0-14.5-7.2-25-22.4-25
	c-4.6,0-8.6,0.4-12.9,0.7v51H24.2z M25.5,188.2c-4.3-0.2-21.6-0.2-25.5,0c0.9-14.7,0.4-126,0.4-126c4.2,0.4,39.7,0,43.3,0
	c8.8,0,18.4,0.7,26.9,7c7,5.1,12.5,12.5,12.5,25.9c0,17.4-10.8,37.5-46.2,37.5c-5.5,0-8.5-0.4-12.7-0.7
	C24.2,131.9,25,182.2,25.5,188.2"/>
<path class="st0" d="M139.9,91.8L121.1,137c6.4,0.2,12.7,0.7,19.1,0.7c5.7,0,11.2-0.4,16.9-0.7L139.9,91.8z M170.2,167.9l-7.7-19.5
	c-7.9-0.4-38.2-0.4-45.6,0c-5.9,14.2-11.8,29.4-14.7,39.9c-2.3,0-14.5-0.1-17.1,0l21.3-47.4C125,99.4,135.6,75.5,140,60.5
	c2,0.1,10.1,0,11.9,0c8.8,25.1,19.8,50.9,26.4,66.3c7,16,19.1,43.7,27.4,61.5c-2.7-0.2-24.5,0-27.9,0L170.2,167.9z"/>
<path class="st0" d="M234.7,62.3c1.5,0,7.2,0.1,8.6,0c17.4,19.3,33.8,36.3,56,58l21.7,21.3c3.5,3.3,5.1,4.6,9.2,7.9
	c0,0-0.9-72.2-2.2-87.2c2.1,0.1,13.4,0.1,15.6,0C342,84.5,342,184.6,342,189.2c-1.3,0-5.9-0.1-7.5,0c-23.3-25.3-68.5-70.3-88-88.1
	c0,25,0.2,38.4,0.5,57.9c0.2,10.6,0.4,12.5,1.7,29.4c-2-0.1-13.6-0.1-15.6,0l1.5-25.5C234.9,157.8,234.9,79.4,234.7,62.3"/>
<path class="st0" d="M411.7,152.1c0,8.4,0.5,17,0.9,25.5c4,0.2,20.4,0.9,25,0.9c12.1,0,43.3-9,43.3-56.2c0-23.7-11.2-50.3-49.4-50.3
	c-6.2,0-12.7,0.4-18.9,0.9c-0.4,7.3-0.9,14.9-0.9,22.2V152.1z M478.7,177.8c-12.8,8.2-24.8,10.5-39.8,10.5c-11.2,0-45.4-0.4-50.9,0
	c0,0,1.5-90.5,0.9-102.1c-0.4-7.9-0.6-15.8-0.9-23.9c4.8,0.4,35.7,0,46.7,0c15.6,0,35.1,0.7,50.3,12.7c14.1,11,21.1,27.5,21.1,46.6
	C506.1,147.5,496,166.8,478.7,177.8"/>
<path class="st0" d="M728.3,119.8c3.5,0.2,7.9,0.6,12.7,0.6c18.3,0,25.1-13.4,25.1-25.3c0-7.7-1.3-14.3-7.7-19.1
	c-5-3.7-11-4.6-17.1-4.6c-3.5,0-10.3,0.7-13,0.9V119.8z M763.6,133.2c2.7,3.9,6.8,9.9,9.5,13.8c14.5,20.4,19.5,26.8,31,41.3
	c-5-0.1-25.7-0.3-31.2,0c-2.7-4.2-6.8-11-9.5-15.3c-9.4-14.5-20.8-30.7-30.7-44.6h-4.4c0,0,0.7,55.1,0.7,59.9
	c-3.7-0.4-20.9-0.6-25,0c1.5-36.2,1.7-102.3,0.4-126c4.2,0.4,44.4,0,48.6,0c11.9,0,20.9,1.5,28.8,9c5.5,5.3,8.4,12.9,8.4,20.6
	c0,20.4-15.2,30.9-31.9,34L763.6,133.2z"/>
<path class="st0" d="M873.5,91.8L854.8,137c6.4,0.2,12.7,0.7,19.1,0.7c5.7,0,11.2-0.4,16.9-0.7L873.5,91.8z M903.8,167.9l-7.7-19.5
	c-7.9-0.4-38.2-0.4-45.5,0c-5.9,14.2-11.8,29.4-14.7,39.9c-2.6-0.2-14.5,0-17.1,0l21.3-47.4c18.5-41.5,29.2-65.4,33.6-80.4
	c2,0,9.9,0.1,11.9,0c8.8,25.1,19.8,50.9,26.4,66.3c7,16,19.1,43.7,27.4,61.5c-2.7,0-24.6-0.2-27.9,0L903.8,167.9z"/>
<path class="st0" d="M602.9,180.9c31,0,43.1-29.4,43.1-55.6c0-29.9-11.2-55.6-43.1-55.6c-31.6,0-43.3,30.5-43.3,55.6
	C559.6,152.6,571.3,180.9,602.9,180.9 M671.2,123.1c0,40.9-27.7,67.2-68.3,67.2c-38.2,0-68.5-22.6-68.5-62.8
	c0-46.6,31.9-67.2,69-67.2C637.6,60.3,671.2,79,671.2,123.1"/>
<path class="st0" d="M607.3,39.3c0,2.4-2,4.4-4.4,4.4s-4.4-2-4.4-4.4s2-4.4,4.4-4.4C605.4,34.9,607.3,36.9,607.3,39.3"/>
<path class="st0" d="M593.7,40.3c0,2.4-2,4.4-4.4,4.4s-4.4-2-4.4-4.4s2-4.4,4.4-4.4C591.7,35.9,593.7,37.9,593.7,40.3"/>
<path class="st0" d="M621,40.3c0,2.4-2,4.4-4.4,4.4s-4.4-2-4.4-4.4s2-4.4,4.4-4.4C619,35.9,621,37.9,621,40.3"/>
<path class="st0" d="M619.1,48.9c-5.2-0.8-10.4-1.2-15.6-1.2c-5.8,0-11.3,0.4-16.6,1.3l1.8,6.2c0,0,6.5-1.1,14.8-1.1s13.7,1,13.7,1
	L619.1,48.9z"/>
<path class="st0" d="M608.2,31.3L603,0l-5.2,31.3c1.9-0.1,3.3-0.1,5.2-0.1C604.6,31.2,606.6,31.2,608.2,31.3"/>
<path class="st0" d="M572.7,2.7L582,33c3.3-0.6,6.7-1,10.1-1.3L572.7,2.7z"/>
<path class="st0" d="M632.9,2.7l-9,30.3c-3.3-0.6-6.6-1-10.1-1.3L632.9,2.7z"/>
</svg>
